<svg width="50" height="50" viewBox="0 0 50 50" fill="none" xmlns="http://www.w3.org/2000/svg">
<path d="M25 50C18.3223 50 12.0442 47.3996 7.32227 42.6777C2.60029 37.9559 0 31.6777 0 25C0 18.3223 2.60039 12.0442 7.32227 7.32227C12.0441 2.60029 18.3223 0 25 0C31.6777 0 37.9558 2.60039 42.6777 7.32227C47.3997 12.0441 50 18.3223 50 25C50 31.6777 47.3996 37.9558 42.6777 42.6777C37.9559 47.3997 31.6777 50 25 50V50ZM25 3.125C12.9381 3.125 3.125 12.9381 3.125 25C3.125 37.0619 12.9381 46.875 25 46.875C37.0619 46.875 46.875 37.0619 46.875 25C46.875 12.9381 37.0619 3.125 25 3.125Z" fill="#F4FAFF"/>
<path d="M25 35.9375C24.1371 35.9375 23.4375 35.2379 23.4375 34.375C23.4375 30.4311 24.9733 26.7232 27.7622 23.9344C29.5075 22.189 30.4688 19.8685 30.4688 17.4001C30.4688 14.6981 28.2706 12.5 25.5687 12.5H25.2126C22.5106 12.5 20.3125 14.6981 20.3125 17.4001V17.9688C20.3125 18.8316 19.6129 19.5312 18.75 19.5312C17.8871 19.5312 17.1875 18.8316 17.1875 17.9688V17.4001C17.1875 12.975 20.7875 9.375 25.2126 9.375H25.5687C29.9937 9.375 33.5938 12.975 33.5938 17.4001C33.5938 20.7031 32.3075 23.8085 29.9719 26.1441C27.7732 28.3427 26.5625 31.2658 26.5625 34.375C26.5625 35.2379 25.8629 35.9375 25 35.9375V35.9375Z" fill="#F4FAFF"/>
<path d="M25.002 42.1875C24.1391 42.1875 23.439 41.4879 23.439 40.625C23.439 39.7621 24.138 39.0625 25.001 39.0625H25.002C25.8648 39.0625 26.5645 39.7621 26.5645 40.625C26.5645 41.4879 25.8648 42.1875 25.002 42.1875Z" fill="#F4FAFF"/>
</svg>
