<svg width="50" height="50" viewBox="0 0 50 50" fill="none" xmlns="http://www.w3.org/2000/svg">
<g clip-path="url(#clip0)">
<path d="M7.45834 44.1583H37.1646L35.7458 39.5646L39.1396 42.4771L42.25 45.2646L47.9167 50V5.15625C47.775 2.36875 45.375 0 42.4 0L7.46876 0.00625C4.49584 0.00625 2.08334 2.37917 2.08334 5.16667V39C2.08334 41.9396 4.49168 44.1583 7.45834 44.1583V44.1583ZM29.4333 11.8396L29.3646 11.8646L29.3896 11.8396H29.4333ZM13.5354 14.4833C17.3542 11.7042 20.8938 11.8375 20.8938 11.8375L21.1792 12.1187C16.5063 13.2333 14.3875 15.3208 14.3875 15.3208C14.3875 15.3208 14.9542 15.0437 15.9438 14.6208C22.2375 12.1458 29.1104 12.325 35.4729 15.4583C35.4729 15.4583 33.35 13.5062 28.9646 12.2562L29.3521 11.875C29.9583 11.8771 33.1667 11.9896 36.6 14.5C36.6 14.5 40.4417 21.0625 40.4417 29.125C40.3146 28.9708 38.0583 32.5958 32.2521 32.7208C32.2521 32.7208 31.2688 31.6083 30.5688 30.6375C33.9646 29.6625 35.2354 27.7125 35.2354 27.7125C34.1208 28.4146 33.1042 28.8312 32.2792 29.2479C31.0104 29.8062 29.7396 30.0812 28.4708 30.3625C22.4625 31.3375 19.0896 29.7062 15.9021 28.4125L14.8125 27.8583C14.8125 27.8583 16.0813 29.8083 19.3417 30.7833C18.4854 31.7604 17.6375 32.8708 17.6375 32.8708C11.8333 32.7333 9.71668 29.1083 9.71668 29.1083C9.71668 21.0333 13.5354 14.4833 13.5354 14.4833V14.4833Z" fill="#F4FAFF"/>
<path d="M29.8083 26.6061C31.2896 26.6061 32.4958 25.3561 32.4958 23.8144C32.4958 22.2832 31.2958 21.0332 29.8083 21.0332V21.0395C28.3333 21.0395 27.125 22.2853 27.1208 23.827C27.1208 25.3561 28.3271 26.6061 29.8083 26.6061Z" fill="#F4FAFF"/>
<path d="M20.1875 26.6061C21.6688 26.6061 22.875 25.3561 22.875 23.8144C22.875 22.2832 21.6771 21.0332 20.1958 21.0332L20.1875 21.0395C18.7063 21.0395 17.5 22.2853 17.5 23.827C17.5 25.3561 18.7063 26.6061 20.1875 26.6061V26.6061Z" fill="#F4FAFF"/>
</g>
<defs>
<clipPath id="clip0">
<rect width="50" height="50" fill="white"/>
</clipPath>
</defs>
</svg>
