<svg width="50" height="50" viewBox="0 0 50 50" fill="none" xmlns="http://www.w3.org/2000/svg">
<path d="M25 0C11.2598 0 0 11.3575 0 25.0977C0 38.7581 11.1572 50 25 50C38.8256 50 50 38.7749 50 25.0977C50 11.3575 38.7402 0 25 0ZM29.3945 46.6309C27.9884 46.9238 26.4942 47.0703 25 47.0703C23.5058 47.0703 22.0116 46.9238 20.6055 46.6309V39.7755C20.6055 38.1348 21.0449 37.5488 21.6309 36.7577C21.9292 36.4166 22.1092 36.1107 23.447 34.0919L21.1914 33.7402C15.3904 32.8907 13.1054 29.8729 12.1971 27.5291C11.0252 24.3946 11.6405 20.4685 13.7501 17.9787C14.0724 17.5976 14.336 16.9529 14.1018 16.2792C13.662 14.9315 13.7207 12.793 14.0137 11.9724C15.567 12.1944 17.1642 13.3072 18.4963 14.1113C19.1101 14.4695 19.4321 14.3749 19.7266 14.4043C20.797 14.1815 22.4667 13.6425 25.0294 13.6425C26.6113 13.6425 28.2814 13.8767 29.9221 14.3456C30.2155 14.3387 30.687 14.5882 31.5041 14.1113C32.8964 13.2629 34.4395 12.1883 35.9863 11.9724C36.2793 12.793 36.338 14.9315 35.8986 16.2792C35.664 16.9529 35.9276 17.5976 36.2503 17.9787C38.3595 20.4689 38.9748 24.3946 37.8029 27.5291C36.8946 29.8729 34.6096 32.8907 28.8086 33.7402L26.553 34.0919C27.9358 36.1786 28.0815 36.4288 28.3695 36.7577C28.9551 37.5488 29.3945 38.1348 29.3945 39.7755V46.6309ZM32.3242 45.7813V39.7755C32.3242 38.1054 31.9725 36.9923 31.5037 36.1717C35.957 34.9709 39.1212 32.3338 40.5273 28.5545C42.0216 24.5705 41.3479 19.8242 38.8573 16.5428C39.2971 14.5802 39.2971 11.4452 38.2423 9.98039C37.7735 9.33609 37.1288 8.98438 36.3087 8.98438C36.2793 8.98438 36.2793 8.98438 36.2793 8.98438C34.0076 9.10721 32.2197 10.2512 30.3028 11.4159C28.545 10.947 26.7578 10.7128 24.9706 10.7128C23.1544 10.7128 21.3379 10.9764 19.7269 11.4159C17.709 10.199 15.9382 9.10416 13.6036 8.98438C12.8712 8.98438 12.2265 9.33609 11.7577 9.98039C10.7033 11.4452 10.7033 14.5802 11.1427 16.5428C8.65211 19.8242 7.97844 24.5995 9.47266 28.5545C10.8788 32.3338 14.043 34.9709 18.4963 36.1717C18.1328 36.8076 17.8452 37.6282 17.7319 38.7386C16.8324 39.0488 16.0522 39.1499 15.3267 38.9366C14.5615 38.7104 13.9652 38.1996 13.4472 37.3283C12.2837 35.3737 10.302 33.778 8.04558 33.9855L8.30307 36.9038C9.34792 36.808 10.3878 37.9135 10.928 38.8248C11.8191 40.3255 13.0196 41.3097 14.497 41.7461C15.5937 42.0692 16.5962 42.0616 17.6758 41.8312V45.7813C9.15031 42.7929 2.92969 34.6485 2.92969 25.0977C2.92969 12.9688 12.8712 2.92969 25 2.92969C37.1288 2.92969 47.0703 12.9688 47.0703 25.0977C47.0703 34.6485 40.8497 42.7929 32.3242 45.7813Z" fill="#F4FAFF"/>
</svg>
