<svg width="50" height="50" viewBox="0 0 50 50" fill="none" xmlns="http://www.w3.org/2000/svg">
<g clip-path="url(#clip0)">
<path d="M21.3543 23.4375H1.5625C0.699997 23.4375 0 22.7375 0 21.875C0 21.0125 0.699997 20.3125 1.5625 20.3125H21.3543C22.2168 20.3125 22.9168 21.0125 22.9168 21.875C22.9168 22.7375 22.2168 23.4375 21.3543 23.4375Z" fill="#F4FAFF"/>
<path d="M13.5418 31.2501C13.1416 31.2501 12.7419 31.0979 12.4374 30.7919C11.8271 30.1812 11.8271 29.1917 12.4374 28.5813L19.146 21.8732L12.4374 15.1669C11.8271 14.5562 11.8271 13.5667 12.4374 12.9563C13.0478 12.3459 14.0373 12.3459 14.6481 12.9563L22.4606 20.7688C23.0709 21.3792 23.0709 22.3687 22.4606 22.9794L14.6481 30.7919C14.3417 31.0979 13.9416 31.2501 13.5418 31.2501V31.2501Z" fill="#F4FAFF"/>
<path d="M33.3332 50C31.0352 50 29.1668 48.1311 29.1668 45.8332V8.33317C29.1668 6.55209 30.3001 4.9625 31.9874 4.37695L44.5042 0.20405C47.3042 -0.654257 50 1.42285 50 4.16676V41.6668C50 43.4459 48.8667 45.0332 47.1813 45.6207L34.6603 49.7959C34.2041 49.9374 33.7814 50 33.3332 50V50ZM45.8332 3.12496C45.6978 3.12496 45.5833 3.14175 45.4605 3.17913L32.996 7.33524C32.5874 7.47715 32.2918 7.88952 32.2918 8.33317V45.8332C32.2918 46.5438 33.0624 47.023 33.7063 46.8208L46.1708 42.6647C46.5771 42.5228 46.875 42.1104 46.875 41.6668V4.16676C46.875 3.59379 46.4085 3.12496 45.8332 3.12496V3.12496Z" fill="#F4FAFF"/>
<path d="M18.2293 10.4168C17.3668 10.4168 16.6668 9.7168 16.6668 8.85429V5.72929C16.6668 2.56882 19.2352 0 22.3957 0H45.8332C46.6957 0 47.3957 0.699997 47.3957 1.5625C47.3957 2.425 46.6957 3.125 45.8332 3.125H22.3957C20.9602 3.125 19.7918 4.29382 19.7918 5.72929V8.85429C19.7918 9.7168 19.0918 10.4168 18.2293 10.4168V10.4168Z" fill="#F4FAFF"/>
<path d="M30.7293 43.7498H22.3957C19.2352 43.7498 16.6668 41.181 16.6668 38.0205V34.8955C16.6668 34.033 17.3668 33.333 18.2293 33.333C19.0918 33.333 19.7918 34.033 19.7918 34.8955V38.0205C19.7918 39.456 20.9602 40.6248 22.3957 40.6248H30.7293C31.5918 40.6248 32.2918 41.3248 32.2918 42.1873C32.2918 43.0498 31.5918 43.7498 30.7293 43.7498Z" fill="#F4FAFF"/>
</g>
<defs>
<clipPath id="clip0">
<rect width="50" height="50" fill="white"/>
</clipPath>
</defs>
</svg>
