<svg width="50" height="50" viewBox="0 0 50 50" fill="none" xmlns="http://www.w3.org/2000/svg">
<g clip-path="url(#clip0)">
<path d="M48.436 23.4384H28.6448C27.7823 23.4384 27.0824 22.7384 27.0824 21.8759C27.0824 21.0135 27.7823 20.3135 28.6448 20.3135H48.436C49.2985 20.3135 49.9984 21.0135 49.9984 21.8759C49.9984 22.7384 49.2985 23.4384 48.436 23.4384Z" fill="#F4FAFF"/>
<path d="M40.6237 31.2507C40.2235 31.2507 39.8238 31.0985 39.5193 30.7925C38.909 30.1818 38.909 29.1923 39.5193 28.582L46.2277 21.8741L39.5193 15.1658C38.909 14.5554 38.909 13.5659 39.5193 12.9556C40.1301 12.3449 41.1196 12.3449 41.7299 12.9556L49.5422 20.7678C50.1525 21.3782 50.1525 22.3677 49.5422 22.978L41.7299 30.7903C41.4236 31.0985 41.0238 31.2507 40.6237 31.2507V31.2507Z" fill="#F4FAFF"/>
<path d="M16.6663 49.9999C16.2203 49.9999 15.7973 49.9373 15.3747 49.8061L2.83728 45.6292C1.1314 45.0333 0 43.4438 0 41.667V4.16813C0 1.87023 1.86876 0.00146484 4.16666 0.00146484C4.61221 0.00146484 5.03524 0.064024 5.45828 0.195245L17.9953 4.37221C19.7015 4.96805 20.8326 6.55758 20.8326 8.33441V45.8332C20.8326 48.1311 18.9642 49.9999 16.6663 49.9999ZM4.16666 3.12637C3.59371 3.12637 3.1249 3.59518 3.1249 4.16813V41.667C3.1249 42.1106 3.42282 42.5229 3.84777 42.671L16.3264 46.8292C16.416 46.8582 16.5328 46.875 16.6663 46.875C17.2392 46.875 17.7077 46.4062 17.7077 45.8332V8.33441C17.7077 7.89078 17.4097 7.47842 16.9848 7.33041L4.50616 3.17214C4.41652 3.14315 4.29979 3.12637 4.16666 3.12637V3.12637Z" fill="#F4FAFF"/>
<path d="M31.7697 16.6677C30.9073 16.6677 30.2073 15.9678 30.2073 15.1053V5.73058C30.2073 4.29515 29.0389 3.12637 27.6035 3.12637H4.16668C3.30421 3.12637 2.60423 2.42639 2.60423 1.56392C2.60423 0.70144 3.30421 0.00146484 4.16668 0.00146484H27.6035C30.7638 0.00146484 33.3322 2.5702 33.3322 5.73058V15.1053C33.3322 15.9678 32.6322 16.6677 31.7697 16.6677Z" fill="#F4FAFF"/>
<path d="M27.6035 43.7502H19.2701C18.4076 43.7502 17.7077 43.0503 17.7077 42.1878C17.7077 41.3253 18.4076 40.6253 19.2701 40.6253H27.6035C29.0389 40.6253 30.2073 39.4566 30.2073 38.0211V28.6464C30.2073 27.784 30.9073 27.084 31.7697 27.084C32.6322 27.084 33.3322 27.784 33.3322 28.6464V38.0211C33.3322 41.1815 30.7638 43.7502 27.6035 43.7502V43.7502Z" fill="#F4FAFF"/>
</g>
<defs>
<clipPath id="clip0">
<rect width="50" height="50" fill="white"/>
</clipPath>
</defs>
</svg>
