<svg width="50" height="50" viewBox="0 0 50 50" fill="none" xmlns="http://www.w3.org/2000/svg">
<g clip-path="url(#clip0)">
<path d="M42.7083 50.0002H17.7083C14.8375 50.0002 12.5 47.6647 12.5 44.7918V13.5418C12.5 10.6689 14.8375 8.3335 17.7083 8.3335H42.7083C45.5792 8.3335 47.9167 10.6689 47.9167 13.5418V44.7918C47.9167 47.6647 45.5792 50.0002 42.7083 50.0002ZM17.7083 10.4168C15.9854 10.4168 14.5833 11.8189 14.5833 13.5418V44.7918C14.5833 46.5147 15.9854 47.9168 17.7083 47.9168H42.7083C44.4312 47.9168 45.8333 46.5147 45.8333 44.7918V13.5418C45.8333 11.8189 44.4312 10.4168 42.7083 10.4168H17.7083Z" fill="#F4FAFF"/>
<path d="M9.37501 43.75H7.29168C4.42084 43.75 2.08334 41.4146 2.08334 38.5417V5.20833C2.08334 2.33542 4.42084 0 7.29168 0H32.2917C35.1625 0 37.5 2.33542 37.5 5.20833C37.5 5.78333 37.0334 6.25 36.4584 6.25C35.8833 6.25 35.4167 5.78333 35.4167 5.20833C35.4167 3.48542 34.0146 2.08333 32.2917 2.08333H7.29168C5.56876 2.08333 4.16668 3.48542 4.16668 5.20833V38.5417C4.16668 40.2646 5.56876 41.6667 7.29168 41.6667H9.37501C9.95001 41.6667 10.4167 42.1333 10.4167 42.7083C10.4167 43.2833 9.95001 43.75 9.37501 43.75Z" fill="#F4FAFF"/>
<path d="M38.5417 35.4168H21.875C21.3 35.4168 20.8333 34.9502 20.8333 34.3752C20.8333 33.8002 21.3 33.3335 21.875 33.3335H38.5417C39.1167 33.3335 39.5833 33.8002 39.5833 34.3752C39.5833 34.9502 39.1167 35.4168 38.5417 35.4168Z" fill="#F4FAFF"/>
<path d="M38.5417 43.7501H21.875C21.3 43.7501 20.8333 43.2834 20.8333 42.7084C20.8333 42.1334 21.3 41.6667 21.875 41.6667H38.5417C39.1167 41.6667 39.5833 42.1334 39.5833 42.7084C39.5833 43.2834 39.1167 43.7501 38.5417 43.7501Z" fill="#F4FAFF"/>
<path d="M38.5417 27.0833H21.875C21.3 27.0833 20.8333 26.6167 20.8333 26.0417C20.8333 25.4667 21.3 25 21.875 25H38.5417C39.1167 25 39.5833 25.4667 39.5833 26.0417C39.5833 26.6167 39.1167 27.0833 38.5417 27.0833Z" fill="#F4FAFF"/>
<path d="M38.5417 18.7498H21.875C21.3 18.7498 20.8333 18.2832 20.8333 17.7082C20.8333 17.1332 21.3 16.6665 21.875 16.6665H38.5417C39.1167 16.6665 39.5833 17.1332 39.5833 17.7082C39.5833 18.2832 39.1167 18.7498 38.5417 18.7498Z" fill="#F4FAFF"/>
</g>
<defs>
<clipPath id="clip0">
<rect width="50" height="50" fill="white"/>
</clipPath>
</defs>
</svg>
